<svg width="18" height="18" viewBox="0 0 18 18" fill="none" xmlns="http://www.w3.org/2000/svg">
<g clip-path="url(#clip0_10597_3535)">
<path d="M2.60015 0.914062C1.36275 0.914062 0.553711 1.7266 0.553711 2.79458C0.553711 3.83897 1.33865 4.67468 2.55267 4.67468H2.57616C3.83776 4.67468 4.62291 3.83897 4.62291 2.79458C4.59932 1.7266 3.83776 0.914062 2.60015 0.914062Z" fill="white"/>
<path d="M0.767578 6.16064H4.38503V17.0439H0.767578V6.16064Z" fill="white"/>
<path d="M13.2641 5.90527C11.3126 5.90527 10.004 7.73903 10.004 7.73903V6.16071H6.38647V17.044H10.0038V10.9663C10.0038 10.641 10.0274 10.3161 10.123 10.0834C10.3845 9.43374 10.9796 8.76065 11.979 8.76065C13.288 8.76065 13.8115 9.75869 13.8115 11.2218V17.044H17.4287V10.8037C17.4287 7.46083 15.6439 5.90527 13.2641 5.90527Z" fill="white"/>
</g>
<defs>
<clipPath id="clip0_10597_3535">
<rect width="18" height="18" fill="white"/>
</clipPath>
</defs>
</svg>
