<svg width="35" height="35" viewBox="0 0 35 35" fill="none" xmlns="http://www.w3.org/2000/svg">
<circle cx="17.5" cy="17.5" r="17.5" fill="#D3ECFA"/>
<g clip-path="url(#clip0_3443_4)">
<path d="M22 13C22 13.7911 21.7654 14.5645 21.3259 15.2223C20.8864 15.8801 20.2616 16.3928 19.5307 16.6955C18.7998 16.9983 17.9956 17.0775 17.2196 16.9231C16.4437 16.7688 15.731 16.3878 15.1716 15.8284C14.6122 15.269 14.2312 14.5563 14.0769 13.7804C13.9225 13.0044 14.0017 12.2002 14.3045 11.4693C14.6072 10.7384 15.1199 10.1136 15.7777 9.67412C16.4355 9.2346 17.2089 9 18 9C19.0609 9 20.0783 9.42143 20.8284 10.1716C21.5786 10.9217 22 11.9391 22 13Z" fill="#77CBF9"/>
<path d="M20.8 18H20.2781C19.5638 18.3294 18.7866 18.4999 18 18.4999C17.2134 18.4999 16.4362 18.3294 15.7219 18H15.2C14.0862 18.0002 13.018 18.4428 12.2304 19.2304C11.4428 20.018 11.0002 21.0862 11 22.2V23.5C11 23.8978 11.158 24.2794 11.4393 24.5607C11.7206 24.842 12.1022 25 12.5 25H23.5C23.8978 25 24.2794 24.842 24.5607 24.5607C24.842 24.2794 25 23.8978 25 23.5V22.2C24.9998 21.0862 24.5572 20.018 23.7696 19.2304C22.982 18.4428 21.9138 18.0002 20.8 18Z" fill="#2193D1"/>
</g>
<defs>
<clipPath id="clip0_3443_4">
<rect width="14" height="16" fill="white" transform="translate(11 9)"/>
</clipPath>
</defs>
</svg>
