<svg width="23" height="20" viewBox="0 0 23 20" fill="none" xmlns="http://www.w3.org/2000/svg">
<path d="M14.2857 11.4286H22.8571V17.8571C22.8571 19 21.8571 20 20.7143 20H2.14286C1 20 0 19 0 17.8571V11.4286H8.57143V13.5714C8.57143 13.7609 8.64668 13.9426 8.78064 14.0765C8.91459 14.2105 9.09627 14.2857 9.28571 14.2857H13.5714C13.7609 14.2857 13.9426 14.2105 14.0765 14.0765C14.2105 13.9426 14.2857 13.7609 14.2857 13.5714V11.4286Z" fill="#7192AE"/>
<path d="M20.7143 4.28571H17.1429V2.14286C17.1429 1 16.1429 0 15 0H7.85714C6.71429 0 5.71429 1 5.71429 2.14286V4.28571H2.14286C1 4.28571 0 5.28571 0 6.42857V10H22.8571V6.42857C22.8571 5.28571 21.8571 4.28571 20.7143 4.28571ZM14.2857 4.28571H8.57143V2.85714H14.2857V4.28571Z" fill="#7192AE"/>
</svg>
