<svg width="12" height="16" viewBox="0 0 12 16" fill="none" xmlns="http://www.w3.org/2000/svg">
<path d="M12 4.8L7.5 0H1.5C1.10218 0 0.720644 0.168571 0.43934 0.468629C0.158035 0.768687 0 1.17565 0 1.6V14.4C0 14.8243 0.158035 15.2313 0.43934 15.5314C0.720644 15.8314 1.10218 16 1.5 16H10.5C10.8978 16 11.2794 15.8314 11.5607 15.5314C11.842 15.2313 12 14.8243 12 14.4V4.8ZM3.75 13.6H2.25V6.4H3.75V13.6ZM6.75 13.6H5.25V8.8H6.75V13.6ZM9.75 13.6H8.25V11.2H9.75V13.6ZM7.5 5.6H6.75V1.6L10.5 5.6H7.5Z" fill="#2193D1"/>
</svg>
