<svg width="26" height="18" viewBox="0 0 26 18" fill="none" xmlns="http://www.w3.org/2000/svg">
<path d="M1.11839e-07 1.29215C1.41649e-07 0.951162 0.135609 0.624135 0.376995 0.383017C0.618382 0.141899 0.945773 0.00644078 1.28714 0.00644081L11.5843 0.00644171C11.7633 -0.0115029 11.944 0.00822225 12.1149 0.0643431C12.2858 0.120464 12.443 0.211734 12.5764 0.33227C12.7097 0.452806 12.8164 0.599931 12.8893 0.764155C12.9623 0.928379 13 1.10606 13 1.28573C13 1.4654 12.9623 1.64308 12.8893 1.8073C12.8164 1.97152 12.7097 2.11865 12.5764 2.23918C12.443 2.35972 12.2858 2.45099 12.1149 2.50711C11.944 2.56323 11.7633 2.58296 11.5843 2.56501L1.28714 2.56501C0.947991 2.56503 0.622538 2.43134 0.381517 2.19299C0.140498 1.95465 0.0033923 1.63091 1.11839e-07 1.29215Z" fill="#6E6E72"/>
<path d="M2.01919e-06 9.00642C2.049e-06 8.66542 0.136284 8.3384 0.37887 8.09728C0.621456 7.85616 0.950474 7.7207 1.29354 7.7207L24.5773 7.7207C24.7571 7.70276 24.9388 7.72248 25.1105 7.77861C25.2822 7.83473 25.4402 7.926 25.5743 8.04653C25.7083 8.16707 25.8155 8.31419 25.8888 8.47842C25.9621 8.64264 26 8.82032 26 8.99999C26 9.17966 25.9621 9.35734 25.8888 9.52156C25.8155 9.68579 25.7083 9.83291 25.5743 9.95345C25.4402 10.074 25.2822 10.1653 25.1105 10.2214C24.9388 10.2775 24.7571 10.2972 24.5773 10.2793L1.29354 10.2793C0.952703 10.2793 0.625631 10.1456 0.383413 9.90725C0.141197 9.66891 0.00341042 9.34518 2.01919e-06 9.00642Z" fill="#6E6E72"/>
<path d="M1.42905 15.435C1.2483 15.4171 1.06574 15.4368 0.893158 15.4929C0.720579 15.549 0.561812 15.6403 0.42709 15.7608C0.292368 15.8814 0.184689 16.0285 0.110991 16.1927C0.0372945 16.3569 -0.000781885 16.5346 -0.000781901 16.7143C-0.000781916 16.894 0.0372945 17.0716 0.110991 17.2359C0.184689 17.4001 0.292368 17.5472 0.42709 17.6677C0.561811 17.7883 0.720579 17.8795 0.893158 17.9357C1.06574 17.9918 1.24829 18.0115 1.42905 17.9936L17.0291 17.9936C17.3497 17.9617 17.647 17.8132 17.8633 17.5768C18.0795 17.3404 18.1992 17.033 18.1992 16.7143C18.1992 16.3955 18.0795 16.0881 17.8633 15.8517C17.647 15.6154 17.3497 15.4668 17.0291 15.435L1.42905 15.435Z" fill="#6E6E72"/>
</svg>
