<svg width="20" height="16" viewBox="0 0 20 16" fill="none" xmlns="http://www.w3.org/2000/svg">
<path d="M2.53984 4.30976V11.9293C2.53984 12.2661 2.67364 12.5891 2.91179 12.8273C3.14995 13.0654 3.47296 13.1992 3.80976 13.1992H7.14331C7.26961 13.1992 7.39074 13.2494 7.48004 13.3387C7.56935 13.428 7.61953 13.5491 7.61953 13.6754V15.2628C7.61953 15.3891 7.56935 15.5103 7.48004 15.5996C7.39074 15.6889 7.26961 15.7391 7.14331 15.7391H3.80976C2.79935 15.7391 1.83032 15.3377 1.11585 14.6232C0.401385 13.9087 0 12.9397 0 11.9293L0 4.30976C0 3.29935 0.401385 2.33032 1.11585 1.61585C1.83032 0.901385 2.79935 0.5 3.80976 0.5H7.14331C7.26961 0.5 7.39074 0.550173 7.48004 0.639482C7.56935 0.72879 7.61953 0.849919 7.61953 0.97622V2.56362C7.61953 2.68992 7.56935 2.81105 7.48004 2.90036C7.39074 2.98967 7.26961 3.03984 7.14331 3.03984H3.80976C3.47296 3.03984 3.14995 3.17364 2.91179 3.41179C2.67364 3.64995 2.53984 3.97296 2.53984 4.30976Z" fill="#7192AE"/>
<path d="M11.4277 14.7866V10.9769H6.03057C5.9054 10.9772 5.78141 10.9528 5.66571 10.905C5.55002 10.8573 5.4449 10.7871 5.35639 10.6986C5.26789 10.6101 5.19774 10.505 5.14999 10.3893C5.10224 10.2736 5.07781 10.1496 5.07813 10.0244V6.21467C5.07781 6.0895 5.10224 5.96551 5.14999 5.84981C5.19774 5.73411 5.26789 5.62899 5.35639 5.54049C5.4449 5.45198 5.55002 5.38184 5.66571 5.33409C5.78141 5.28633 5.9054 5.26191 6.03057 5.26223H11.4277V1.45246C11.4277 0.603201 12.4556 0.18254 13.0548 0.777815L19.7219 7.4449C19.8993 7.62464 19.9988 7.86701 19.9988 8.11955C19.9988 8.37209 19.8993 8.61446 19.7219 8.79419L13.0548 15.4613C12.4595 16.0566 11.4277 15.6407 11.4277 14.7866Z" fill="#7192AE"/>
</svg>
