<svg width="24" height="25" viewBox="0 0 24 25" fill="none" xmlns="http://www.w3.org/2000/svg">
<path d="M3.3 20.6V24.7426L4.9665 23.7427L10.2047 20.6H15.4C16.6133 20.6 17.6 19.6133 17.6 18.4V9.59999C17.6 8.38669 16.6133 7.39999 15.4 7.39999H2.2C0.9867 7.39999 0 8.38669 0 9.59999V18.4C0 19.6133 0.9867 20.6 2.2 20.6H3.3ZM2.2 9.59999H15.4V18.4H9.5953L5.5 20.8574V18.4H2.2V9.59999Z" fill="#6E6E72"/>
<path opacity="0.5" d="M19.8004 3H6.60039C5.38709 3 4.40039 3.9867 4.40039 5.2H17.6004C18.8137 5.2 19.8004 6.1867 19.8004 7.4V16.2C21.0137 16.2 22.0004 15.2133 22.0004 14V5.2C22.0004 3.9867 21.0137 3 19.8004 3Z" fill="#6E6E72"/>
</svg>
