<svg width="22" height="20" viewBox="0 0 22 20" fill="none" xmlns="http://www.w3.org/2000/svg">
<path d="M19.2629 14.146L22.0005 11.4084L19.2629 8.67071L19.7042 8.22941C20.0712 7.8624 20.2773 7.36464 20.2773 6.84561C20.2773 6.32659 20.0712 5.82882 19.7042 5.46181C19.3372 5.0948 18.8394 4.88862 18.3204 4.88862C17.8013 4.88862 17.3036 5.0948 16.9366 5.46181L16.4953 5.90311L13.7576 3.16547L12.9499 3.97318V5.25015C13.6603 5.41981 14.2929 5.82393 14.7454 6.39726C15.198 6.9706 15.4441 7.67971 15.4441 8.41012C15.4441 9.14054 15.198 9.84964 14.7454 10.423C14.2929 10.9963 13.6603 11.4004 12.9499 11.5701V15.5298H10.5797L10.1074 16.0021L13.7576 19.6522L16.4953 16.9146L16.8757 17.295C17.2428 17.662 17.7407 17.8681 18.2598 17.868C18.7789 17.8679 19.2767 17.6616 19.6438 17.2945C20.0108 16.9274 20.2169 16.4295 20.2168 15.9103C20.2167 15.3912 20.0104 14.8934 19.6433 14.5264L19.2629 14.146Z" fill="#7192AE"/>
<path d="M11.6575 14.2389V10.367H12.1946C12.7137 10.367 13.2116 10.1608 13.5787 9.79371C13.9458 9.42663 14.152 8.92876 14.152 8.40963C14.152 7.89049 13.9458 7.39263 13.5787 7.02554C13.2116 6.65846 12.7137 6.45224 12.1946 6.45224H11.6575V2.5804H7.78762V1.95739C7.78762 1.70034 7.73699 1.44581 7.63862 1.20833C7.54025 0.970846 7.39607 0.755066 7.21431 0.573305C7.03255 0.391545 6.81677 0.247365 6.57929 0.148997C6.34181 0.0506293 6.08728 0 5.83023 0C5.57318 0 5.31865 0.0506293 5.08117 0.148997C4.84369 0.247365 4.62791 0.391545 4.44615 0.573305C4.26439 0.755066 4.12021 0.970846 4.02184 1.20833C3.92347 1.44581 3.87284 1.70034 3.87284 1.95739V2.58139H0V6.45224H0.537146C0.989024 6.45267 1.42687 6.60923 1.77657 6.89543C2.12626 7.18163 2.36632 7.57987 2.45609 8.02274C2.53703 8.13532 2.58057 8.27047 2.58057 8.40913C2.58057 8.54778 2.53703 8.68293 2.45609 8.79551C2.36634 9.23848 2.12633 9.63685 1.77665 9.92321C1.42698 10.2096 0.989115 10.3663 0.537146 10.367H0V14.2389H3.87084V13.6148C3.87084 13.0957 4.07707 12.5978 4.44415 12.2308C4.81123 11.8637 5.3091 11.6575 5.82823 11.6575C6.34736 11.6575 6.84523 11.8637 7.21231 12.2308C7.57939 12.5978 7.78562 13.0957 7.78562 13.6148V14.2389H11.6575Z" fill="#7192AE"/>
</svg>
