<svg width="13" height="9" viewBox="0 0 13 9" fill="none" xmlns="http://www.w3.org/2000/svg">
<path fill-rule="evenodd" clip-rule="evenodd" d="M8.16987 7.83395C8.11664 7.78087 8.07441 7.71781 8.0456 7.64839C8.01678 7.57896 8.00195 7.50454 8.00195 7.42937C8.00195 7.35421 8.01678 7.27979 8.0456 7.21036C8.07441 7.14094 8.11664 7.07788 8.16987 7.0248L11.1957 4.00077L8.16987 0.976733C8.06255 0.869433 8.00225 0.723903 8.00225 0.572157C8.00225 0.420412 8.06255 0.274882 8.16987 0.167582C8.27719 0.0602813 8.42276 9.3528e-07 8.57453 9.28646e-07C8.72631 9.22012e-07 8.87187 0.0602812 8.9792 0.167582L12.4086 3.59619C12.4618 3.64927 12.504 3.71233 12.5328 3.78175C12.5616 3.85118 12.5765 3.9256 12.5765 4.00077C12.5765 4.07593 12.5616 4.15035 12.5328 4.21978C12.504 4.2892 12.4618 4.35226 12.4086 4.40534L8.9792 7.83395C8.92611 7.88717 8.86303 7.92939 8.79359 7.9582C8.72415 7.987 8.64971 8.00183 8.57453 8.00183C8.49935 8.00183 8.42491 7.987 8.35547 7.9582C8.28604 7.92939 8.22296 7.88717 8.16987 7.83395Z" fill="#2193D1"/>
<path fill-rule="evenodd" clip-rule="evenodd" d="M-2.49782e-08 4.00077C-3.16028e-08 3.84922 0.0602178 3.70387 0.167406 3.5967C0.274594 3.48954 0.419972 3.42933 0.571559 3.42933L10.8596 3.42933C11.0112 3.42933 11.1566 3.48954 11.2638 3.5967C11.371 3.70387 11.4312 3.84922 11.4312 4.00077C11.4312 4.15232 11.371 4.29767 11.2638 4.40483C11.1566 4.512 11.0112 4.5722 10.8596 4.5722L0.571559 4.5722C0.419972 4.5722 0.274594 4.512 0.167406 4.40484C0.0602178 4.29767 -1.83536e-08 4.15232 -2.49782e-08 4.00077Z" fill="#2193D1"/>
</svg>
