<svg width="14" height="14" viewBox="0 0 14 14" fill="none" xmlns="http://www.w3.org/2000/svg">
<g clip-path="url(#clip0_1224_922)">
<path d="M7 0C3.13996 0 0 3.13996 0 7C0 10.86 3.13996 14 7 14C10.86 14 14 10.8595 14 7C14 3.14051 10.86 0 7 0ZM7 12.9156C3.73857 12.9156 1.08443 10.262 1.08443 7C1.08443 3.73803 3.73857 1.08443 7 1.08443C10.2614 1.08443 12.9156 3.73803 12.9156 7C12.9156 10.262 10.262 12.9156 7 12.9156Z" fill="white"/>
<path d="M9.71243 6.40908H7.54358V4.24022C7.54358 3.94092 7.3012 3.698 7.00135 3.698C6.7015 3.698 6.45912 3.94092 6.45912 4.24022V6.40908H4.29027C3.99042 6.40908 3.74805 6.652 3.74805 6.9513C3.74805 7.25061 3.99042 7.49353 4.29027 7.49353H6.45912V9.66238C6.45912 9.96169 6.7015 10.2046 7.00135 10.2046C7.3012 10.2046 7.54358 9.96169 7.54358 9.66238V7.49353H9.71243C10.0123 7.49353 10.2547 7.25061 10.2547 6.9513C10.2547 6.652 10.0123 6.40908 9.71243 6.40908Z" fill="white"/>
</g>
<defs>
<clipPath id="clip0_1224_922">
<rect width="14" height="14" fill="white"/>
</clipPath>
</defs>
</svg>
