<svg width="35" height="35" viewBox="0 0 35 35" fill="none" xmlns="http://www.w3.org/2000/svg">
<circle cx="17.5" cy="17.5" r="17.5" fill="#D3ECFA"/>
<path d="M22.9792 17.4736H21.8965C22.0068 17.7758 22.0671 18.1019 22.0671 18.4417V22.5337C22.0671 22.6754 22.0425 22.8114 21.9976 22.9379H23.7875C24.4562 22.9379 25.0001 22.3939 25.0001 21.7253V19.4946C25.0001 18.3802 24.0935 17.4736 22.9792 17.4736Z" fill="#2193D1"/>
<path d="M13.933 18.4417C13.933 18.1018 13.9933 17.7758 14.1037 17.4736H13.021C11.9066 17.4736 11 18.3802 11 19.4946V21.7253C11 22.394 11.544 22.9379 12.2126 22.9379H14.0026C13.9577 22.8114 13.933 22.6754 13.933 22.5337V18.4417Z" fill="#2193D1"/>
<path d="M19.2384 16.4207H16.7632C15.6488 16.4207 14.7422 17.3273 14.7422 18.4416V22.5336C14.7422 22.7568 14.9231 22.9378 15.1464 22.9378H20.8552C21.0784 22.9378 21.2593 22.7569 21.2593 22.5336V18.4416C21.2593 17.3273 20.3527 16.4207 19.2384 16.4207Z" fill="#2193D1"/>
<path d="M18.0008 11.062C16.6606 11.062 15.5703 12.1523 15.5703 13.4925C15.5703 14.4016 16.072 15.1955 16.813 15.6123C17.1645 15.81 17.5696 15.923 18.0008 15.923C18.4319 15.923 18.8371 15.81 19.1886 15.6123C19.9296 15.1955 20.4313 14.4015 20.4313 13.4925C20.4313 12.1523 19.341 11.062 18.0008 11.062Z" fill="#2193D1"/>
<path d="M13.7317 13.3274C12.7295 13.3274 11.9141 14.1428 11.9141 15.1451C11.9141 16.1474 12.7295 16.9628 13.7317 16.9628C13.986 16.9628 14.2281 16.9101 14.448 16.8154C14.8283 16.6517 15.1418 16.3619 15.3358 15.9989C15.472 15.7442 15.5494 15.4535 15.5494 15.1451C15.5494 14.1428 14.734 13.3274 13.7317 13.3274Z" fill="#2193D1"/>
<path d="M22.2669 13.3274C21.2646 13.3274 20.4492 14.1428 20.4492 15.1451C20.4492 15.4536 20.5267 15.7442 20.6629 15.9989C20.8569 16.362 21.1704 16.6517 21.5506 16.8154C21.7706 16.9101 22.0127 16.9628 22.2669 16.9628C23.2692 16.9628 24.0846 16.1474 24.0846 15.1451C24.0846 14.1428 23.2692 13.3274 22.2669 13.3274Z" fill="#2193D1"/>
</svg>
