<svg width="18" height="16" viewBox="0 0 18 16" fill="none" xmlns="http://www.w3.org/2000/svg">
<g clip-path="url(#clip0_1258_545)">
<path opacity="0.43" d="M17.6437 1.88101L16.1187 0.356013C15.8897 0.127857 15.5795 -0.000244141 15.2562 -0.000244141C14.9329 -0.000244141 14.6228 0.127857 14.3937 0.356013L13.2875 1.46226C13.2305 1.51954 13.1985 1.59707 13.1985 1.67789C13.1985 1.75871 13.2305 1.83624 13.2875 1.89351L16.1062 4.71226C16.1635 4.76928 16.241 4.8013 16.3219 4.8013C16.4027 4.8013 16.4802 4.76928 16.5375 4.71226L17.6437 3.60601C17.8719 3.37695 18 3.06682 18 2.74351C18 2.42021 17.8719 2.11008 17.6437 1.88101ZM13.3594 9.29976L12.1094 10.5498C12.0399 10.6208 12.0008 10.716 12 10.8154V13.9966H2V3.99664H9.18124C9.28059 3.99588 9.37579 3.95668 9.44687 3.88726L10.6969 2.63726C10.7495 2.58481 10.7854 2.51791 10.7999 2.44505C10.8145 2.37219 10.807 2.29664 10.7786 2.22801C10.7501 2.15937 10.7019 2.10074 10.6401 2.05954C10.5782 2.01835 10.5055 1.99646 10.4312 1.99664H1.5C1.10217 1.99664 0.720644 2.15467 0.43934 2.43598C0.158035 2.71728 0 3.09881 0 3.49664L0 14.4966C0 14.8945 0.158035 15.276 0.43934 15.5573C0.720644 15.8386 1.10217 15.9966 1.5 15.9966H12.5C12.8978 15.9966 13.2793 15.8386 13.5607 15.5573C13.842 15.276 14 14.8945 14 14.4966V9.56539C14.0002 9.49109 13.9783 9.41841 13.9371 9.35657C13.8959 9.29473 13.8373 9.24652 13.7686 9.21806C13.7 9.1896 13.6244 9.18218 13.5516 9.19672C13.4787 9.21127 13.4118 9.24713 13.3594 9.29976Z" fill="white"/>
<path d="M15.3987 5.4156C15.4557 5.47287 15.4877 5.5504 15.4877 5.63122C15.4877 5.71204 15.4557 5.78957 15.3987 5.84685L8.57372 12.6718L5.67372 12.9937C5.58301 13.0039 5.49117 12.9935 5.40502 12.9634C5.31887 12.9332 5.24062 12.884 5.17607 12.8195C5.11153 12.755 5.06235 12.6767 5.03219 12.5905C5.00203 12.5044 4.99166 12.4126 5.00185 12.3218L5.32372 9.42185L12.1487 2.59684C12.206 2.53982 12.2835 2.50781 12.3643 2.50781C12.4452 2.50781 12.5227 2.53982 12.58 2.59684L15.3987 5.4156Z" fill="white"/>
</g>
<defs>
<clipPath id="clip0_1258_545">
<rect width="18" height="16" fill="white"/>
</clipPath>
</defs>
</svg>
