<svg width="18" height="20" viewBox="0 0 18 20" fill="none" xmlns="http://www.w3.org/2000/svg">
<path d="M13.75 5C13.75 5.98891 13.4568 6.95561 12.9074 7.77785C12.3579 8.6001 11.5771 9.24096 10.6634 9.6194C9.74979 9.99784 8.74446 10.0969 7.77455 9.90393C6.80465 9.711 5.91373 9.2348 5.21447 8.53553C4.51521 7.83627 4.039 6.94536 3.84608 5.97545C3.65315 5.00555 3.75217 4.00021 4.1306 3.08658C4.50904 2.17295 5.14991 1.39206 5.97215 0.842652C6.7944 0.293245 7.7611 0 8.75 0C10.0761 0 11.3479 0.526784 12.2855 1.46447C13.2232 2.40215 13.75 3.67392 13.75 5Z" fill="#7192AE"/>
<path d="M12.25 11.25H11.5977C10.7048 11.6617 9.73323 11.8749 8.75 11.8749C7.76677 11.8749 6.79523 11.6617 5.90234 11.25H5.25C3.85771 11.2503 2.52253 11.8035 1.53803 12.788C0.553534 13.7725 0.000310675 15.1077 0 16.5L0 18.125C0 18.6223 0.197544 19.0992 0.549175 19.4508C0.900805 19.8025 1.37772 20 1.875 20H15.625C16.1223 20 16.5992 19.8025 16.9508 19.4508C17.3025 19.0992 17.5 18.6223 17.5 18.125V16.5C17.4997 15.1077 16.9465 13.7725 15.962 12.788C14.9775 11.8035 13.6423 11.2503 12.25 11.25Z" fill="#7192AE"/>
</svg>
