<svg width="18" height="18" viewBox="0 0 18 18" fill="none" xmlns="http://www.w3.org/2000/svg">
<g clip-path="url(#clip0_10597_2935)">
<path d="M18 9.05469C18 13.5464 14.7045 17.2702 10.4025 17.9459V11.6737H12.4943L12.8925 9.07869H10.4025V7.39494C10.4025 6.68469 10.7505 5.99319 11.865 5.99319H12.9967V3.78369C12.9967 3.78369 11.9692 3.60819 10.9875 3.60819C8.937 3.60819 7.5975 4.85094 7.5975 7.10019V9.07794H5.31825V11.6729H7.5975V17.9452C3.29625 17.2687 0 13.5457 0 9.05469C0 4.08444 4.02975 0.0546875 9 0.0546875C13.9703 0.0546875 18 4.08369 18 9.05469Z" fill="white"/>
</g>
<defs>
<clipPath id="clip0_10597_2935">
<rect width="18" height="18" fill="white"/>
</clipPath>
</defs>
</svg>
