<svg width="18" height="18" viewBox="0 0 18 18" fill="none" xmlns="http://www.w3.org/2000/svg">
<g clip-path="url(#clip0_10597_2630)">
<path d="M9 1.6215C11.403 1.6215 11.688 1.6305 12.6368 1.674C13.6178 1.719 14.628 1.9425 15.3428 2.65725C16.0643 3.37875 16.281 4.37925 16.326 5.36325C16.3695 6.312 16.3785 6.597 16.3785 9C16.3785 11.403 16.3695 11.688 16.326 12.6368C16.2817 13.6125 16.053 14.6325 15.3428 15.3428C14.6213 16.0643 13.6215 16.281 12.6368 16.326C11.688 16.3695 11.403 16.3785 9 16.3785C6.597 16.3785 6.312 16.3695 5.36325 16.326C4.395 16.2817 3.3615 16.0478 2.65725 15.3428C1.9395 14.625 1.719 13.6148 1.674 12.6368C1.6305 11.688 1.6215 11.403 1.6215 9C1.6215 6.597 1.6305 6.312 1.674 5.36325C1.71825 4.39125 1.94925 3.36525 2.65725 2.65725C3.37725 1.93725 4.3815 1.719 5.36325 1.674C6.312 1.6305 6.597 1.6215 9 1.6215ZM9 0C6.55575 0 6.249 0.0105 5.289 0.054C3.89775 0.11775 2.51625 0.50475 1.5105 1.5105C0.501 2.52 0.11775 3.8985 0.054 5.289C0.0105 6.249 0 6.55575 0 9C0 11.4443 0.0105 11.751 0.054 12.711C0.11775 14.1007 0.50625 15.486 1.5105 16.4895C2.51925 17.4983 3.9 17.8822 5.289 17.946C6.249 17.9895 6.55575 18 9 18C11.4443 18 11.751 17.9895 12.711 17.946C14.1015 17.8822 15.4845 17.4945 16.4895 16.4895C17.4998 15.4792 17.8822 14.1015 17.946 12.711C17.9895 11.751 18 11.4443 18 9C18 6.55575 17.9895 6.249 17.946 5.289C17.8822 3.89775 17.4945 2.5155 16.4895 1.5105C15.4823 0.50325 14.0977 0.117 12.711 0.054C11.751 0.0105 11.4443 0 9 0Z" fill="white"/>
<path d="M8.99992 4.37842C6.44767 4.37842 4.37842 6.44767 4.37842 8.99992C4.37842 11.5522 6.44767 13.6214 8.99992 13.6214C11.5522 13.6214 13.6214 11.5522 13.6214 8.99992C13.6214 6.44767 11.5522 4.37842 8.99992 4.37842ZM8.99992 11.9999C7.34317 11.9999 5.99992 10.6567 5.99992 8.99992C5.99992 7.34317 7.34317 5.99992 8.99992 5.99992C10.6567 5.99992 11.9999 7.34317 11.9999 8.99992C11.9999 10.6567 10.6567 11.9999 8.99992 11.9999Z" fill="white"/>
<path d="M13.8046 5.27572C14.4011 5.27572 14.8846 4.79219 14.8846 4.19572C14.8846 3.59926 14.4011 3.11572 13.8046 3.11572C13.2081 3.11572 12.7246 3.59926 12.7246 4.19572C12.7246 4.79219 13.2081 5.27572 13.8046 5.27572Z" fill="white"/>
</g>
<defs>
<clipPath id="clip0_10597_2630">
<rect width="18" height="18" fill="white"/>
</clipPath>
</defs>
</svg>
