<svg width="24" height="24" viewBox="0 0 24 24" fill="none" xmlns="http://www.w3.org/2000/svg">
<g clip-path="url(#clip0_134_2062)">
<path d="M0 7.99927V13.9993H7.91C7.67273 15.3958 6.94948 16.6635 5.86803 17.5785C4.78658 18.4934 3.41655 18.9966 2 18.9993V20.9993C4.121 20.9969 6.15445 20.1533 7.65422 18.6535C9.154 17.1537 9.99762 15.1203 10 12.9993V3.99927H4C2.93913 3.99927 1.92172 4.42069 1.17157 5.17084C0.421427 5.92099 0 6.9384 0 7.99927H0Z" fill="#C45312"/>
<path d="M18.0001 3.99927C16.9393 3.99927 15.9218 4.42069 15.1717 5.17084C14.4215 5.92099 14.0001 6.9384 14.0001 7.99927V13.9993H21.9101C21.6729 15.3958 20.9496 16.6635 19.8682 17.5785C18.7867 18.4934 17.4167 18.9966 16.0001 18.9993V20.9993C18.1211 20.9969 20.1546 20.1533 21.6543 18.6535C23.1541 17.1537 23.9977 15.1203 24.0001 12.9993V3.99927H18.0001Z" fill="#C45312"/>
</g>
<defs>
<clipPath id="clip0_134_2062">
<rect width="24" height="24" fill="white"/>
</clipPath>
</defs>
</svg>
