<svg width="22" height="22" viewBox="0 0 22 22" fill="none" xmlns="http://www.w3.org/2000/svg">
<path d="M20.2025 11.7259C20.023 11.5252 19.924 11.2672 19.924 11C19.924 10.7328 20.023 10.4748 20.2025 10.2741L21.6357 8.69031C21.7936 8.51727 21.8916 8.29954 21.9158 8.06836C21.9399 7.83717 21.8889 7.60442 21.77 7.40349L19.5307 3.59801C19.413 3.39731 19.2339 3.23822 19.0187 3.14342C18.8036 3.04863 18.5635 3.02296 18.3327 3.07008L16.2277 3.48802C15.9599 3.54239 15.681 3.49857 15.4438 3.36484C15.2066 3.23111 15.0274 3.01672 14.9401 2.76212L14.2571 0.749394C14.182 0.530941 14.0389 0.341201 13.848 0.206994C13.6571 0.0727869 13.4282 0.000900553 13.1934 0.00149575H8.7148C8.47064 -0.0110228 8.22902 0.0553074 8.02684 0.190356C7.82467 0.325404 7.67305 0.521746 7.59514 0.749394L6.96813 2.76212C6.8808 3.01672 6.70163 3.23111 6.46442 3.36484C6.22721 3.49857 5.94837 3.54239 5.68053 3.48802L3.51959 3.07008C3.30075 3.0397 3.07766 3.07362 2.87841 3.16757C2.67917 3.26151 2.51268 3.41128 2.39993 3.59801L0.160616 7.40349C0.0387525 7.60218 -0.0160413 7.83362 0.00406833 8.06474C0.0241779 8.29587 0.118161 8.51482 0.272582 8.69031L1.69455 10.2741C1.87405 10.4748 1.97304 10.7328 1.97304 11C1.97304 11.2672 1.87405 11.5252 1.69455 11.7259L0.272582 13.3097C0.118161 13.4852 0.0241779 13.7041 0.00406833 13.9353C-0.0160413 14.1664 0.0387525 14.3978 0.160616 14.5965L2.39993 18.402C2.5176 18.6027 2.69677 18.7618 2.9119 18.8566C3.12702 18.9514 3.36712 18.977 3.59797 18.9299L5.70292 18.512C5.97076 18.4576 6.2496 18.5014 6.48681 18.6352C6.72402 18.7689 6.9032 18.9833 6.99053 19.2379L7.67352 21.2506C7.75142 21.4783 7.90304 21.6746 8.10522 21.8096C8.3074 21.9447 8.54902 22.011 8.79318 21.9985H13.2718C13.5065 21.9991 13.7355 21.9272 13.9264 21.793C14.1173 21.6588 14.2604 21.4691 14.3355 21.2506L15.0185 19.2379C15.1058 18.9833 15.285 18.7689 15.5222 18.6352C15.7594 18.5014 16.0382 18.4576 16.3061 18.512L18.411 18.9299C18.6419 18.977 18.882 18.9514 19.0971 18.8566C19.3122 18.7618 19.4914 18.6027 19.6091 18.402L21.8484 14.5965C21.9673 14.3956 22.0183 14.1628 21.9942 13.9316C21.97 13.7005 21.872 13.4827 21.714 13.3097L20.2025 11.7259ZM18.5342 13.1997L19.4299 14.1896L17.9968 16.6312L16.6756 16.3673C15.8692 16.2053 15.0303 16.3399 14.3182 16.7454C13.6062 17.1509 13.0704 17.7991 12.8127 18.567L12.3873 19.7988H9.52095L9.11788 18.545C8.86019 17.7771 8.32447 17.1289 7.61239 16.7234C6.90032 16.3179 6.06146 16.1834 5.25506 16.3453L3.93386 16.6092L2.47831 14.1786L3.37403 13.1887C3.92485 12.5838 4.22938 11.8006 4.22938 10.989C4.22938 10.1774 3.92485 9.39424 3.37403 8.7893L2.47831 7.79944L3.91147 5.37976L5.23267 5.64373C6.03907 5.80565 6.87792 5.67109 7.59 5.2656C8.30207 4.8601 8.8378 4.2119 9.09548 3.44403L9.52095 2.2012H12.3873L12.8127 3.45503C13.0704 4.2229 13.6062 4.8711 14.3182 5.2766C15.0303 5.68209 15.8692 5.81665 16.6756 5.65473L17.9968 5.39076L19.4299 7.83243L18.5342 8.8223C17.9896 9.42585 17.6888 10.2045 17.6888 11.011C17.6888 11.8175 17.9896 12.5961 18.5342 13.1997ZM10.9541 6.6006C10.0683 6.6006 9.20243 6.85862 8.46592 7.34203C7.72941 7.82544 7.15538 8.51254 6.8164 9.31642C6.47742 10.1203 6.38873 11.0049 6.56154 11.8583C6.73435 12.7117 7.1609 13.4956 7.78725 14.1108C8.41359 14.7261 9.21161 15.1451 10.0804 15.3149C10.9491 15.4846 11.8497 15.3975 12.668 15.0645C13.4864 14.7315 14.1858 14.1677 14.678 13.4442C15.1701 12.7207 15.4327 11.8701 15.4327 11C15.4327 9.83321 14.9609 8.7142 14.121 7.88915C13.2811 7.06411 12.1419 6.6006 10.9541 6.6006ZM10.9541 13.1997C10.5112 13.1997 10.0783 13.0707 9.71002 12.829C9.34177 12.5873 9.05475 12.2437 8.88526 11.8418C8.71577 11.4398 8.67142 10.9976 8.75783 10.5709C8.84423 10.1442 9.05751 9.75221 9.37068 9.44458C9.68386 9.13694 10.0829 8.92744 10.5172 8.84257C10.9516 8.75769 11.4019 8.80125 11.8111 8.96774C12.2202 9.13423 12.57 9.41617 12.816 9.77791C13.0621 10.1397 13.1934 10.5649 13.1934 11C13.1934 11.5834 12.9575 12.1429 12.5376 12.5554C12.1176 12.9679 11.548 13.1997 10.9541 13.1997Z" fill="#6E6E72"/>
</svg>
