<svg width="14" height="14" viewBox="0 0 14 14" fill="none" xmlns="http://www.w3.org/2000/svg">
<g clip-path="url(#clip0_1191_24)">
<path d="M13.3438 9.6228H9.625V9.84155C9.625 10.2477 9.46367 10.6371 9.17651 10.9243C8.88934 11.2115 8.49986 11.3728 8.09375 11.3728H5.90625C5.50014 11.3728 5.11066 11.2115 4.82349 10.9243C4.53633 10.6371 4.375 10.2477 4.375 9.84155V9.6228H0.656252C0.570011 9.62259 0.484578 9.63941 0.40486 9.67232C0.325143 9.70522 0.252712 9.75355 0.191731 9.81453C0.130749 9.87551 0.0824183 9.94794 0.0495153 10.0277C0.0166123 10.1074 -0.000214353 10.1928 2.06128e-06 10.2791V13.3416C-0.000214353 13.4278 0.0166123 13.5132 0.0495153 13.5929C0.0824183 13.6727 0.130749 13.7451 0.191731 13.8061C0.252712 13.8671 0.325143 13.9154 0.40486 13.9483C0.484578 13.9812 0.570011 13.998 0.656252 13.9978H13.3438C13.43 13.998 13.5154 13.9812 13.5951 13.9483C13.6749 13.9154 13.7473 13.8671 13.8083 13.8061C13.8693 13.7451 13.9176 13.6727 13.9505 13.5929C13.9834 13.5132 14.0002 13.4278 14 13.3416V10.2791C14.0002 10.1928 13.9834 10.1074 13.9505 10.0277C13.9176 9.94794 13.8693 9.87551 13.8083 9.81453C13.7473 9.75355 13.6749 9.70522 13.5951 9.67232C13.5154 9.63941 13.43 9.62259 13.3438 9.6228ZM10.0625 13.2322C9.95434 13.2322 9.84861 13.2001 9.75867 13.14C9.66874 13.0799 9.59865 12.9945 9.55725 12.8946C9.51586 12.7947 9.50503 12.6847 9.52614 12.5786C9.54724 12.4725 9.59932 12.3751 9.6758 12.2986C9.75228 12.2221 9.84973 12.17 9.95581 12.1489C10.0619 12.1278 10.1719 12.1387 10.2718 12.1801C10.3717 12.2215 10.4571 12.2915 10.5172 12.3815C10.5773 12.4714 10.6094 12.5771 10.6094 12.6853C10.6089 12.8302 10.5512 12.9691 10.4487 13.0715C10.3463 13.174 10.2074 13.2317 10.0625 13.2322ZM11.8125 13.2322C11.7043 13.2322 11.5986 13.2001 11.5087 13.14C11.4187 13.0799 11.3486 12.9945 11.3073 12.8946C11.2659 12.7947 11.255 12.6847 11.2761 12.5786C11.2972 12.4725 11.3493 12.3751 11.4258 12.2986C11.5023 12.2221 11.5997 12.17 11.7058 12.1489C11.8119 12.1278 11.9219 12.1387 12.0218 12.1801C12.1217 12.2215 12.2071 12.2915 12.2672 12.3815C12.3273 12.4714 12.3594 12.5771 12.3594 12.6853C12.3589 12.8302 12.3012 12.9691 12.1987 13.0715C12.0963 13.174 11.9574 13.2317 11.8125 13.2322Z" fill="white" fill-opacity="0.59"/>
<path d="M5.24974 9.84184V5.24809H2.85169C2.36498 5.24809 2.12162 4.6602 2.46615 4.31539L6.62513 0.153676C6.72435 0.0551256 6.85853 -0.000183105 6.99837 -0.000183105C7.13822 -0.000183105 7.27239 0.0551256 7.37162 0.153676L11.5333 4.31539C11.8779 4.6602 11.6345 5.24809 11.1478 5.24809H8.74974V9.84184C8.74996 9.92808 8.73313 10.0135 8.70023 10.0932C8.66732 10.1729 8.61899 10.2454 8.55801 10.3064C8.49703 10.3673 8.4246 10.4157 8.34488 10.4486C8.26516 10.4815 8.17973 10.4983 8.09349 10.4981H5.90599C5.81975 10.4983 5.73432 10.4815 5.6546 10.4486C5.57488 10.4157 5.50245 10.3673 5.44147 10.3064C5.38049 10.2454 5.33216 10.1729 5.29925 10.0932C5.26635 10.0135 5.24952 9.92808 5.24974 9.84184Z" fill="white"/>
</g>
<defs>
<clipPath id="clip0_1191_24">
<rect width="14" height="14" fill="white"/>
</clipPath>
</defs>
</svg>
